<svg xmlns="http://www.w3.org/2000/svg" xmlns:xlink="http://www.w3.org/1999/xlink" version="1.1" x="0px" y="0px" viewBox="0 0 100 100" style="enable-background:new 0 0 100 100;" xml:space="preserve"><g><path d="M42.7,15.6c0.2,0.1,0.3,0.1,0.5,0.1c0.3,0,0.7-0.2,0.9-0.5c0.1-0.1,0.1-0.2,0.2-0.2c0.3-0.5,0.2-1.1-0.3-1.4   c-0.5-0.3-1.1-0.2-1.4,0.3c-0.1,0.1-0.1,0.2-0.2,0.3C42.1,14.7,42.2,15.3,42.7,15.6z"></path><path d="M45.4,13.5c0.2,0,0.4,0,0.5-0.1c0.9-0.6,1.8-0.7,1.8-0.7c0.5-0.1,0.9-0.6,0.9-1.1c-0.1-0.5-0.6-0.9-1.1-0.9   c-0.1,0-1.3,0.2-2.6,1c-0.5,0.3-0.6,0.9-0.3,1.4C44.8,13.3,45.1,13.5,45.4,13.5z"></path><path d="M42.3,44.6c-0.6,0-1,0.4-1,1v1c0,0.6,0.4,1,1,1s1-0.4,1-1v-1C43.3,45,42.8,44.6,42.3,44.6z"></path><path d="M47.1,44.6c0-0.6-0.4-1-1-1s-1,0.4-1,1v3c0,0.6,0.4,1,1,1s1-0.4,1-1V44.6z"></path><path d="M49.9,49.1c0.6,0,1-0.4,1-1v-4c0-0.6-0.4-1-1-1s-1,0.4-1,1v4C48.9,48.6,49.3,49.1,49.9,49.1z"></path><path d="M54.6,47.6v-3c0-0.6-0.4-1-1-1s-1,0.4-1,1v3c0,0.6,0.4,1,1,1S54.6,48.1,54.6,47.6z"></path><path d="M57.4,47.6c0.6,0,1-0.4,1-1v-1c0-0.6-0.4-1-1-1s-1,0.4-1,1v1C56.4,47.1,56.9,47.6,57.4,47.6z"></path><path d="M43.2,37.7c0.5,0,1-0.5,0.9-1.1c0-0.6-0.5-1-1.1-0.9c-1.8,0.1-5.4,1.3-6.4,5.3c-0.1,0.5,0.2,1.1,0.7,1.2c0.1,0,0.2,0,0.2,0   c0.4,0,0.9-0.3,1-0.8C39.5,38,43.1,37.7,43.2,37.7z"></path><path d="M63.1,61.9c-0.5-0.1-1.1,0.2-1.2,0.7c-0.9,3.5-4.4,3.7-4.5,3.8c-0.5,0-1,0.5-0.9,1.1c0,0.5,0.5,0.9,1,0.9c0,0,0,0,0.1,0   c1.8-0.1,5.4-1.3,6.4-5.3C64,62.6,63.6,62,63.1,61.9z"></path><path d="M49.8,53.7c-1.6,0-2.9,1.3-2.9,2.9s1.3,2.9,2.9,2.9c1.6,0,2.9-1.3,2.9-2.9S51.4,53.7,49.8,53.7z M49.8,57.5   c-0.5,0-0.9-0.4-0.9-0.9s0.4-0.9,0.9-0.9s0.9,0.4,0.9,0.9S50.3,57.5,49.8,57.5z"></path><path d="M42.7,53.7c-1.6,0-2.9,1.3-2.9,2.9s1.3,2.9,2.9,2.9s2.9-1.3,2.9-2.9S44.3,53.7,42.7,53.7z M42.7,57.5   c-0.5,0-0.9-0.4-0.9-0.9s0.4-0.9,0.9-0.9s0.9,0.4,0.9,0.9S43.2,57.5,42.7,57.5z"></path><path d="M59.8,56.6c0-1.6-1.3-2.9-2.9-2.9s-2.9,1.3-2.9,2.9s1.3,2.9,2.9,2.9S59.8,58.2,59.8,56.6z M56.1,56.6   c0-0.5,0.4-0.9,0.9-0.9s0.9,0.4,0.9,0.9s-0.4,0.9-0.9,0.9S56.1,57.1,56.1,56.6z"></path><path d="M45.4,24.2c2.1,0,3.9-1.7,3.9-3.9c0-2.1-1.7-3.9-3.9-3.9c-2.1,0-3.9,1.7-3.9,3.9C41.6,22.5,43.3,24.2,45.4,24.2z    M45.4,18.4c1,0,1.9,0.8,1.9,1.9s-0.8,1.9-1.9,1.9s-1.9-0.8-1.9-1.9S44.4,18.4,45.4,18.4z"></path><path d="M54.1,24.2c2.1,0,3.9-1.7,3.9-3.9c0-2.1-1.7-3.9-3.9-3.9s-3.9,1.7-3.9,3.9C50.2,22.5,51.9,24.2,54.1,24.2z M54.1,18.4   c1,0,1.9,0.8,1.9,1.9s-0.8,1.9-1.9,1.9s-1.9-0.8-1.9-1.9S53,18.4,54.1,18.4z"></path><path d="M42.4,27.1c0,0.6,0.4,1,1,1h12.3c0.6,0,1-0.4,1-1s-0.4-1-1-1H43.4C42.8,26.1,42.4,26.5,42.4,27.1z"></path><path d="M62,31.4V19.2c0-6.3-4.9-11.5-11.1-12V5.4c0-0.6-0.4-1-1-1s-1,0.4-1,1v1.7c-6.2,0.5-11.1,5.7-11.1,12v12.2   c-11.2,0.2-15.3,9-15.3,17.3v15.2v2v0.7c0,2.5,2.1,4.6,4.6,4.6h0.5c2.4,0,4.3-1.8,4.6-4.1c1.2,2.2,3,4,5.1,5.3v13.7   c-0.1,0-0.2,0-0.3,0c-3.7,0-6.7,3-6.7,6.6c0,1.6,1.3,2.8,2.9,2.8h15.1c0.6,0,1-0.4,1-1V88v-0.9V74.6h2.2v12.5V88v6.6   c0,0.6,0.4,1,1,1h15.1c1.6,0,2.9-1.3,2.9-2.8c0-3.7-3-6.6-6.7-6.6c-0.1,0-0.2,0-0.3,0V71.9c0-0.1,0-0.1,0-0.2   c1.7-1.2,3.1-2.8,4.1-4.6c0.3,2.3,2.2,4.1,4.6,4.1h0.5c2.5,0,4.6-2.1,4.6-4.6v-0.7v-2V48.7C77.2,40.4,73.2,31.6,62,31.4z M49.9,9.1   c5.6,0,10.1,4.5,10.1,10.1v12.1c-1.6-0.6-3.4-1-5.2-1H45c-1.8,0-3.6,0.4-5.2,1V19.2C39.8,13.6,44.3,9.1,49.9,9.1z M24.5,61.5H26   c0.6,0,1-0.4,1-1s-0.4-1-1-1h-1.5V48.7c0-11.6,6.9-14.5,11.2-15.1c-3.4,2.7-5.5,6.8-5.5,11.5v2.2c0,0,0,0,0,0.1v16.6h-5.7V61.5z    M30.2,66.6c0,1.4-1.2,2.6-2.6,2.6h-0.5c-1.4,0-2.6-1.2-2.6-2.6v-0.7h5.7V66.6z M47.2,86.1h-2.1c-0.6,0-1,0.4-1,1s0.4,1,1,1h2.1   v5.5H33.1c-0.5,0-0.9-0.4-0.9-0.8c0-2.6,2.1-4.6,4.7-4.6c1.8,0,3.5,0.7,4.7,2c0.2,0.2,0.5,0.3,0.7,0.3c0.3,0,0.5-0.1,0.7-0.3   c0.4-0.4,0.4-1,0-1.4c-1.1-1.1-2.4-1.9-3.8-2.3v-13c1.8,0.7,3.7,1.2,5.7,1.2h2.2V86.1z M61.4,86.4c-1.4,0.4-2.8,1.2-3.8,2.3   c-0.4,0.4-0.4,1,0,1.4c0.2,0.2,0.4,0.3,0.7,0.3c0.3,0,0.5-0.1,0.7-0.3c1.2-1.3,2.9-2,4.7-2c2.6,0,4.7,2.1,4.7,4.6   c0,0.5-0.4,0.8-0.9,0.8H53.5v-5.5h2.1c0.6,0,1-0.4,1-1s-0.4-1-1-1h-2.1V74.6h1.2c2.4,0,4.7-0.6,6.7-1.6V86.4z M54.7,72.6H45   c-7,0-12.7-5.7-12.7-12.7V45c0-7,5.7-12.7,12.7-12.7h9.7c7,0,12.7,5.7,12.7,12.7v2.2c0,0,0,0,0,0V60C67.3,66.9,61.7,72.6,54.7,72.6   z M75.2,66.6c0,1.4-1.2,2.6-2.6,2.6h-0.5c-1.4,0-2.6-1.2-2.6-2.6v-0.7h5.7V66.6z M69.5,63.9V60c0-0.1,0-0.1,0-0.2V45   c0-4.6-2.1-8.8-5.5-11.5c4.3,0.7,11.2,3.6,11.2,15.1v10.8h-1.5c-0.6,0-1,0.4-1,1s0.4,1,1,1h1.5v2.4H69.5z"></path></g></svg>
